<svg version="1.2" xmlns="http://www.w3.org/2000/svg" viewBox="0 0 512 512" width="512" height="512"><style>.a{fill:#ff7800}</style><path class="a" d="m509.1 263l-90.4-125.8c-2.5-4-6.5-6.5-10.8-7.1-4.4-0.6-8.8 0.9-12.2 4 0 0-60.8 65.2-78.9 80.7-15.4 13.1-25.6 1.1-27.1-7.9-1.2-7.4 1.2-19 3.7-22.3 0 0 3.4-7.1 10.4-29.1 8-25.1-10.5-47.3-14.7-33.6-4.1 13.7-17.9 39.6-17.9 39.6h-15.2-15.2c0 0-13.8-25.9-17.9-39.6-4.2-13.7-22.7 8.5-14.7 33.6 7 22 10.4 29.1 10.4 29.1 2.5 3.3 4.9 14.9 3.7 22.3-1.5 9-11.7 21-27.1 7.9-18.1-15.5-78.9-80.7-78.9-80.7-3.4-3.1-7.8-4.6-12.2-4-4.3 0.6-8.3 3.1-10.8 7.1l-90.4 125.8c-3.9 6-3.9 14.2 0.1 20.2 4 6 11 8.5 17.5 6.2l46.5-17.7c3.4-1.3 7.1-0.9 10.1 1 3.1 2 5.2 5.3 5.9 9.2l5.9 34.5c0.8 4.3 3.4 8 7 9.8 3.7 1.8 7.9 1.5 11.3-0.8l51.3-33.9c5.6-1.3 11.4 0.9 15.1 5.7l70.5 91c3 3.9 7.3 6.1 11.9 6.1 4.6 0 8.9-2.2 11.9-6.1l70.5-91c3.7-4.8 9.5-7 15.1-5.7l51.3 33.9c3.4 2.3 7.6 2.6 11.3 0.8 3.6-1.8 6.2-5.5 7-9.8l5.9-34.5c0.7-3.9 2.8-7.2 5.9-9.2 3-1.9 6.7-2.3 10.1-1l46.6 17.7c6.4 2.3 13.4-0.2 17.4-6.2 4-6 4-14.2 0.1-20.2z"/></svg>